<?xml version="1.0" encoding="utf-8"?>
<!-- Generator: Adobe Illustrator 25.2.1, SVG Export Plug-In . SVG Version: 6.00 Build 0)  -->
<svg version="1.1" id="Ebene_1" xmlns="http://www.w3.org/2000/svg" xmlns:xlink="http://www.w3.org/1999/xlink" x="0px" y="0px"
	 viewBox="0 0 228.6 61" style="enable-background:new 0 0 228.6 61;" xml:space="preserve">
<style type="text/css">
	.st0{fill:#E6007E;}
	.st1{fill:url(#SVGID_1_);}
</style>
<path class="st0" d="M216.2,27.9h-4.5c0,0.4,0.1,0.9,0.4,1.2c0.5,0.5,1.3,0.5,1.9,0.1c0.2-0.2,0.4-0.4,0.5-0.7h1.6
	c-0.1,0.4-0.2,0.8-0.5,1.1c-0.3,0.3-0.6,0.6-1,0.8c-0.4,0.2-0.9,0.3-1.4,0.3c-0.6,0-1.1-0.1-1.6-0.4c-0.5-0.2-0.8-0.6-1.1-1.1
	c-0.5-1-0.5-2.3,0-3.3c0.2-0.5,0.6-0.8,1.1-1.1c0.5-0.3,1-0.4,1.6-0.4c0.5,0,1.1,0.1,1.6,0.4c0.4,0.2,0.8,0.6,1,1
	c0.3,0.5,0.4,1,0.4,1.5C216.2,27.5,216.2,27.7,216.2,27.9z M214.3,26.1c-0.3-0.3-0.6-0.4-1-0.4s-0.8,0.1-1.1,0.4s-0.5,0.7-0.5,1.1
	h2.9C214.7,26.8,214.6,26.4,214.3,26.1z"/>
<path class="st0" d="M218.6,29v1.6h-1.7V29H218.6z"/>
<path class="st0" d="M220.7,22.9l2.1,6.1l2.1-6.1h1.7l-2.8,7.8h-2l-2.8-7.8C219,22.9,220.7,22.9,220.7,22.9z"/>
<path class="st0" d="M228.6,29v1.6H227V29H228.6z"/>
<path class="st0" d="M73.5,22.5v9.2c0,0.6,0.1,1.3,0.5,1.8s1,0.7,1.6,0.7s1.2-0.2,1.6-0.7s0.6-1.2,0.5-1.8v-9.2h5.1v9.2
	c0,1.4-0.3,2.8-1,4c-0.6,1.1-1.5,1.9-2.6,2.5c-1.2,0.6-2.5,0.9-3.8,0.8c-1.3,0-2.5-0.3-3.7-0.8c-1.1-0.6-1.9-1.4-2.5-2.5
	c-0.6-1.2-0.9-2.6-0.9-4v-9.2H73.5z"/>
<path class="st0" d="M100.7,38.8h-5.1l-5.4-8.2v8.2h-5.1V22.5h5.1l5.4,8.3v-8.3h5.1V38.8z"/>
<path class="st0" d="M108.1,22.5v16.3H103V22.5H108.1z"/>
<path class="st0" d="M114.7,22.5l3.4,11.2l3.3-11.2h5.4l-5.5,16.3h-6.6l-5.5-16.3H114.7z"/>
<path class="st0" d="M133.1,26.6v2h5.1v3.8h-5.1v2.3h5.8v4.1H128V22.5h10.9v4L133.1,26.6z"/>
<path class="st0" d="M148.9,38.8l-3.1-5.8v5.8h-5.1V22.5h7.6c1.2,0,2.3,0.2,3.4,0.7c0.9,0.4,1.6,1.1,2.1,1.9s0.7,1.8,0.7,2.7
	c0,1-0.3,2.1-0.9,2.9c-0.7,0.9-1.6,1.5-2.6,1.8l3.5,6.2L148.9,38.8z M145.8,29.5h2c0.4,0,0.8-0.1,1.1-0.3c0.3-0.3,0.4-0.6,0.4-1
	s-0.1-0.7-0.4-1c-0.3-0.3-0.7-0.4-1.1-0.4h-2V29.5z"/>
<path class="st0" d="M168,36.5c-0.5,0.8-1.2,1.4-2.1,1.8c-1,0.5-2.2,0.7-3.3,0.7c-1.7,0.1-3.4-0.4-4.8-1.4c-1.3-0.9-2-2.4-2.1-4h5.4
	c0.1,0.9,0.5,1.4,1.2,1.4c0.2,0,0.5-0.1,0.6-0.2c0.2-0.2,0.3-0.4,0.2-0.6c0-0.4-0.2-0.7-0.6-0.9c-0.6-0.3-1.2-0.6-1.9-0.8
	c-0.9-0.3-1.7-0.6-2.6-1c-0.7-0.4-1.3-0.9-1.8-1.6c-1-1.7-1-3.8,0.1-5.4c0.6-0.8,1.3-1.4,2.2-1.7c1-0.4,2.1-0.6,3.2-0.6
	c1.7-0.1,3.3,0.4,4.6,1.4c1.2,1,1.9,2.4,1.9,3.9H163c-0.1-0.9-0.4-1.3-1.1-1.3c-0.2,0-0.4,0.1-0.5,0.2c-0.1,0.2-0.2,0.4-0.2,0.6
	c0,0.4,0.2,0.7,0.6,0.9c0.6,0.3,1.2,0.6,1.8,0.8c0.9,0.3,1.7,0.7,2.6,1.1c0.7,0.4,1.3,0.9,1.8,1.6c0.5,0.8,0.8,1.7,0.8,2.7
	C168.7,34.9,168.5,35.8,168,36.5z"/>
<path class="st0" d="M175.5,22.5v9.2c0,0.6,0.1,1.3,0.5,1.8s1,0.7,1.6,0.7s1.2-0.2,1.6-0.7c0.4-0.5,0.6-1.2,0.5-1.8v-9.2h5.1v9.2
	c0,1.4-0.3,2.8-1,4c-0.6,1.1-1.5,1.9-2.6,2.5c-1.2,0.6-2.5,0.9-3.8,0.8c-1.3,0-2.5-0.3-3.7-0.8c-1-0.6-1.9-1.4-2.5-2.5
	c-0.6-1.2-0.9-2.6-0.9-4v-9.2H175.5z"/>
<path class="st0" d="M206.6,22.5v16.3h-5.1v-8.1l-2.5,8.1h-4.4l-2.5-8.1v8.1H187V22.5h6.2l3.6,9.8l3.5-9.8H206.6z"/>
<radialGradient id="SVGID_1_" cx="86.2658" cy="101.8038" r="54.4335" gradientTransform="matrix(-0.6912 -0.7227 -0.633 0.6054 176.4809 7.4069)" gradientUnits="userSpaceOnUse">
	<stop  offset="9.614441e-02" style="stop-color:#E6007E;stop-opacity:0"/>
	<stop  offset="0.4463" style="stop-color:#E6007E;stop-opacity:0.6331"/>
	<stop  offset="0.4612" style="stop-color:#E6007E;stop-opacity:0.66"/>
	<stop  offset="0.6175" style="stop-color:#E6007E"/>
	<stop  offset="0.7682" style="stop-color:#E6007E;stop-opacity:0.95"/>
	<stop  offset="1" style="stop-color:#E6007E;stop-opacity:0.8"/>
</radialGradient>
<circle class="st1" cx="30.5" cy="30.5" r="30.5"/>
</svg>
